<svg width="18" height="16" viewBox="0 0 18 16" fill="none" xmlns="http://www.w3.org/2000/svg">
<path d="M15.8756 3.625H2.12561C1.78043 3.625 1.50061 3.90482 1.50061 4.25V14.25C1.50061 14.5952 1.78043 14.875 2.12561 14.875H15.8756C16.2208 14.875 16.5006 14.5952 16.5006 14.25V4.25C16.5006 3.90482 16.2208 3.625 15.8756 3.625Z" stroke="white" stroke-width="1.2" stroke-linecap="round" stroke-linejoin="round"/>
<path d="M12.125 3.625V2.375C12.125 2.04348 11.9933 1.72554 11.7589 1.49112C11.5245 1.2567 11.2065 1.125 10.875 1.125H7.125C6.79348 1.125 6.47554 1.2567 6.24112 1.49112C6.0067 1.72554 5.875 2.04348 5.875 2.375V3.625" stroke="white" stroke-width="1.2" stroke-linecap="round" stroke-linejoin="round"/>
<path d="M16.5006 7.8679C14.2211 9.1867 11.6334 9.87914 8.99998 9.875C6.36696 9.87914 3.77968 9.18693 1.50049 7.86857" stroke="white" stroke-width="1.2" stroke-linecap="round" stroke-linejoin="round"/>
<path d="M8.0625 7.375H9.9375" stroke="white" stroke-linecap="round" stroke-linejoin="round"/>
</svg>
