<svg width="400" height="220" viewBox="0 0 400 220" fill="none" xmlns="http://www.w3.org/2000/svg">
<rect width="400" height="220" rx="24" fill="white"/>
<path fill-rule="evenodd" clip-rule="evenodd" d="M219.734 61.5566L219.216 81.4825L208.002 70.5627L219.734 61.5566Z" fill="#5170FF"/>
<path fill-rule="evenodd" clip-rule="evenodd" d="M196.49 109.097L181.623 115.931L190.4 86.4548L196.49 109.097Z" fill="#CB9D2D"/>
<path fill-rule="evenodd" clip-rule="evenodd" d="M196.379 97.8072L217.874 83.6691L197.562 63.8901L192.162 82.1316L196.379 97.8072Z" fill="#EC6224"/>
<path fill-rule="evenodd" clip-rule="evenodd" d="M169.316 58.0685L195.183 62.8832L190.053 80.2141L169.316 58.0685Z" fill="#55AC55"/>
<path fill-rule="evenodd" clip-rule="evenodd" d="M230.686 65.5005L221.633 70.3683L221.823 61.5566L230.686 65.5005Z" fill="#7338AC"/>
<path d="M126.702 160H124.128V147.592H119.684V145.326H131.146V147.592H126.702V160ZM135.847 160.264C134.234 160.264 132.899 159.751 131.843 158.724C130.802 157.683 130.281 156.333 130.281 154.676C130.281 153.121 130.787 151.809 131.799 150.738C132.826 149.653 134.117 149.11 135.671 149.11C137.241 149.11 138.502 149.653 139.455 150.738C140.423 151.823 140.907 153.209 140.907 154.896V155.446H132.701C132.789 156.282 133.134 156.979 133.735 157.536C134.337 158.093 135.121 158.372 136.089 158.372C136.632 158.372 137.175 158.269 137.717 158.064C138.275 157.859 138.737 157.573 139.103 157.206L140.159 158.724C139.089 159.751 137.651 160.264 135.847 160.264ZM138.663 153.818C138.634 153.085 138.363 152.432 137.849 151.86C137.351 151.288 136.625 151.002 135.671 151.002C134.762 151.002 134.051 151.288 133.537 151.86C133.024 152.417 132.738 153.07 132.679 153.818H138.663ZM146.817 160.264C144.911 160.264 143.393 159.714 142.263 158.614L143.319 156.942C143.715 157.353 144.251 157.705 144.925 157.998C145.6 158.291 146.267 158.438 146.927 158.438C147.602 158.438 148.115 158.306 148.467 158.042C148.834 157.778 149.017 157.433 149.017 157.008C149.017 156.627 148.797 156.333 148.357 156.128C147.917 155.908 147.382 155.739 146.751 155.622C146.121 155.49 145.49 155.336 144.859 155.16C144.229 154.969 143.693 154.639 143.253 154.17C142.813 153.701 142.593 153.092 142.593 152.344C142.593 151.435 142.967 150.672 143.715 150.056C144.463 149.425 145.483 149.11 146.773 149.11C148.401 149.11 149.78 149.609 150.909 150.606L149.941 152.234C149.604 151.853 149.157 151.545 148.599 151.31C148.042 151.075 147.441 150.958 146.795 150.958C146.194 150.958 145.71 151.083 145.343 151.332C144.991 151.567 144.815 151.875 144.815 152.256C144.815 152.549 144.969 152.791 145.277 152.982C145.6 153.158 145.996 153.29 146.465 153.378C146.949 153.466 147.47 153.591 148.027 153.752C148.585 153.899 149.098 154.075 149.567 154.28C150.051 154.485 150.447 154.823 150.755 155.292C151.078 155.747 151.239 156.304 151.239 156.964C151.239 157.932 150.851 158.724 150.073 159.34C149.296 159.956 148.211 160.264 146.817 160.264ZM156.754 160.264C155.86 160.264 155.178 160.029 154.708 159.56C154.254 159.091 154.026 158.416 154.026 157.536V151.398H152.266V149.374H154.026V146.47H156.336V149.374H158.492V151.398H156.336V156.964C156.336 157.345 156.424 157.653 156.6 157.888C156.776 158.108 157.026 158.218 157.348 158.218C157.818 158.218 158.162 158.093 158.382 157.844L158.932 159.582C158.448 160.037 157.722 160.264 156.754 160.264ZM179.506 160H176.58L175.502 157.184H168.77L167.692 160H164.766L170.53 145.326H173.742L179.506 160ZM174.776 154.918L172.136 147.922L169.496 154.918H174.776ZM184.673 160.264C182.766 160.264 181.248 159.714 180.119 158.614L181.175 156.942C181.571 157.353 182.106 157.705 182.781 157.998C183.456 158.291 184.123 158.438 184.783 158.438C185.458 158.438 185.971 158.306 186.323 158.042C186.69 157.778 186.873 157.433 186.873 157.008C186.873 156.627 186.653 156.333 186.213 156.128C185.773 155.908 185.238 155.739 184.607 155.622C183.976 155.49 183.346 155.336 182.715 155.16C182.084 154.969 181.549 154.639 181.109 154.17C180.669 153.701 180.449 153.092 180.449 152.344C180.449 151.435 180.823 150.672 181.571 150.056C182.319 149.425 183.338 149.11 184.629 149.11C186.257 149.11 187.636 149.609 188.765 150.606L187.797 152.234C187.46 151.853 187.012 151.545 186.455 151.31C185.898 151.075 185.296 150.958 184.651 150.958C184.05 150.958 183.566 151.083 183.199 151.332C182.847 151.567 182.671 151.875 182.671 152.256C182.671 152.549 182.825 152.791 183.133 152.982C183.456 153.158 183.852 153.29 184.321 153.378C184.805 153.466 185.326 153.591 185.883 153.752C186.44 153.899 186.954 154.075 187.423 154.28C187.907 154.485 188.303 154.823 188.611 155.292C188.934 155.747 189.095 156.304 189.095 156.964C189.095 157.932 188.706 158.724 187.929 159.34C187.152 159.956 186.066 160.264 184.673 160.264ZM195.05 160.264C193.143 160.264 191.625 159.714 190.496 158.614L191.552 156.942C191.948 157.353 192.483 157.705 193.158 157.998C193.832 158.291 194.5 158.438 195.16 158.438C195.834 158.438 196.348 158.306 196.7 158.042C197.066 157.778 197.25 157.433 197.25 157.008C197.25 156.627 197.03 156.333 196.59 156.128C196.15 155.908 195.614 155.739 194.984 155.622C194.353 155.49 193.722 155.336 193.092 155.16C192.461 154.969 191.926 154.639 191.486 154.17C191.046 153.701 190.826 153.092 190.826 152.344C190.826 151.435 191.2 150.672 191.948 150.056C192.696 149.425 193.715 149.11 195.006 149.11C196.634 149.11 198.012 149.609 199.142 150.606L198.174 152.234C197.836 151.853 197.389 151.545 196.832 151.31C196.274 151.075 195.673 150.958 195.028 150.958C194.426 150.958 193.942 151.083 193.576 151.332C193.224 151.567 193.048 151.875 193.048 152.256C193.048 152.549 193.202 152.791 193.51 152.982C193.832 153.158 194.228 153.29 194.698 153.378C195.182 153.466 195.702 153.591 196.26 153.752C196.817 153.899 197.33 154.075 197.8 154.28C198.284 154.485 198.68 154.823 198.988 155.292C199.31 155.747 199.472 156.304 199.472 156.964C199.472 157.932 199.083 158.724 198.306 159.34C197.528 159.956 196.443 160.264 195.05 160.264ZM202.941 148.076C202.559 148.076 202.222 147.937 201.929 147.658C201.65 147.379 201.511 147.042 201.511 146.646C201.511 146.25 201.65 145.913 201.929 145.634C202.222 145.355 202.559 145.216 202.941 145.216C203.337 145.216 203.674 145.355 203.953 145.634C204.231 145.913 204.371 146.25 204.371 146.646C204.371 147.042 204.231 147.379 203.953 147.658C203.674 147.937 203.337 148.076 202.941 148.076ZM204.107 160H201.797V149.374H204.107V160ZM211.415 164.312C209.611 164.312 208.13 163.784 206.971 162.728L208.049 161.056C208.841 161.965 209.963 162.42 211.415 162.42C212.295 162.42 213.036 162.185 213.637 161.716C214.253 161.261 214.561 160.535 214.561 159.538V158.262C213.652 159.435 212.515 160.022 211.151 160.022C209.758 160.022 208.621 159.538 207.741 158.57C206.876 157.602 206.443 156.267 206.443 154.566C206.443 152.879 206.876 151.552 207.741 150.584C208.621 149.601 209.758 149.11 211.151 149.11C212.545 149.11 213.681 149.689 214.561 150.848V149.374H216.871V159.45C216.871 160.359 216.71 161.144 216.387 161.804C216.079 162.479 215.654 162.985 215.111 163.322C214.569 163.674 213.989 163.923 213.373 164.07C212.772 164.231 212.119 164.312 211.415 164.312ZM211.833 157.976C212.361 157.976 212.882 157.837 213.395 157.558C213.909 157.279 214.297 156.942 214.561 156.546V152.586C214.297 152.19 213.909 151.853 213.395 151.574C212.882 151.295 212.361 151.156 211.833 151.156C210.924 151.156 210.198 151.471 209.655 152.102C209.113 152.718 208.841 153.539 208.841 154.566C208.841 155.593 209.113 156.421 209.655 157.052C210.198 157.668 210.924 157.976 211.833 157.976ZM229.347 160H227.037V153.356C227.037 151.889 226.326 151.156 224.903 151.156C224.346 151.156 223.825 151.295 223.341 151.574C222.857 151.853 222.468 152.19 222.175 152.586V160H219.865V149.374H222.175V150.826C222.571 150.357 223.099 149.953 223.759 149.616C224.419 149.279 225.138 149.11 225.915 149.11C227.044 149.11 227.895 149.403 228.467 149.99C229.054 150.577 229.347 151.42 229.347 152.52V160ZM247.682 160H245.372V153.07C245.372 151.794 244.792 151.156 243.634 151.156C243.15 151.156 242.68 151.295 242.226 151.574C241.771 151.853 241.419 152.183 241.17 152.564V160H238.86V153.07C238.86 151.794 238.273 151.156 237.1 151.156C236.63 151.156 236.168 151.295 235.714 151.574C235.274 151.853 234.922 152.19 234.658 152.586V160H232.348V149.374H234.658V150.826C234.922 150.43 235.376 150.049 236.022 149.682C236.682 149.301 237.378 149.11 238.112 149.11C239.652 149.11 240.62 149.763 241.016 151.068C241.353 150.54 241.852 150.085 242.512 149.704C243.172 149.308 243.876 149.11 244.624 149.11C246.662 149.11 247.682 150.181 247.682 152.322V160ZM255.58 160.264C253.966 160.264 252.632 159.751 251.576 158.724C250.534 157.683 250.014 156.333 250.014 154.676C250.014 153.121 250.52 151.809 251.532 150.738C252.558 149.653 253.849 149.11 255.404 149.11C256.973 149.11 258.234 149.653 259.188 150.738C260.156 151.823 260.64 153.209 260.64 154.896V155.446H252.434C252.522 156.282 252.866 156.979 253.468 157.536C254.069 158.093 254.854 158.372 255.822 158.372C256.364 158.372 256.907 158.269 257.45 158.064C258.007 157.859 258.469 157.573 258.836 157.206L259.892 158.724C258.821 159.751 257.384 160.264 255.58 160.264ZM258.396 153.818C258.366 153.085 258.095 152.432 257.582 151.86C257.083 151.288 256.357 151.002 255.404 151.002C254.494 151.002 253.783 151.288 253.27 151.86C252.756 152.417 252.47 153.07 252.412 153.818H258.396ZM272.402 160H270.092V153.356C270.092 151.889 269.38 151.156 267.958 151.156C267.4 151.156 266.88 151.295 266.396 151.574C265.912 151.853 265.523 152.19 265.23 152.586V160H262.92V149.374H265.23V150.826C265.626 150.357 266.154 149.953 266.814 149.616C267.474 149.279 268.192 149.11 268.97 149.11C270.099 149.11 270.95 149.403 271.522 149.99C272.108 150.577 272.402 151.42 272.402 152.52V160ZM278.592 160.264C277.698 160.264 277.016 160.029 276.546 159.56C276.092 159.091 275.864 158.416 275.864 157.536V151.398H274.104V149.374H275.864V146.47H278.174V149.374H280.33V151.398H278.174V156.964C278.174 157.345 278.262 157.653 278.438 157.888C278.614 158.108 278.864 158.218 279.186 158.218C279.656 158.218 280 158.093 280.22 157.844L280.77 159.582C280.286 160.037 279.56 160.264 278.592 160.264Z" fill="#444444"/>
</svg>
