<svg width="20" height="20" viewBox="0 0 20 20" fill="none" xmlns="http://www.w3.org/2000/svg">
<path d="M4.08602 7.15622C4.22664 6.85934 4.3907 6.57809 4.5782 6.30465L4.54695 4.2734C4.54695 4.0859 4.62508 3.90622 4.77352 3.78122C5.50008 3.17184 6.3282 2.67965 7.24227 2.35153C7.42195 2.28903 7.61727 2.30465 7.77352 2.40622L9.5157 3.45309C9.84383 3.42965 10.172 3.42965 10.5001 3.45309L12.2423 2.40622C12.4063 2.31247 12.6016 2.28903 12.7813 2.35153C13.672 2.67184 14.5079 3.1484 15.2501 3.7734C15.3907 3.89059 15.4766 4.07809 15.4688 4.26559L15.4376 6.29684C15.6251 6.57028 15.7891 6.85153 15.9298 7.1484L17.7032 8.13278C17.8673 8.22653 17.9845 8.38278 18.0157 8.57028C18.1798 9.49997 18.1876 10.4687 18.0157 11.414C17.9845 11.6015 17.8673 11.7578 17.7032 11.8515L15.9298 12.8359C15.7891 13.1328 15.6251 13.414 15.4376 13.6875L15.4688 15.7187C15.4688 15.9062 15.3907 16.0859 15.2423 16.2109C14.5157 16.8203 13.6876 17.3125 12.7735 17.6406C12.5938 17.7031 12.3985 17.6875 12.2423 17.5859L10.5001 16.539C10.172 16.5625 9.84383 16.5625 9.5157 16.539L7.77352 17.5859C7.60945 17.6797 7.41414 17.7031 7.23445 17.6406C6.34383 17.3203 5.50789 16.8437 4.7657 16.2187C4.62508 16.1015 4.53914 15.914 4.54695 15.7265L4.5782 13.6953C4.3907 13.4218 4.22664 13.1406 4.08602 12.8437L2.31258 11.8593C2.14852 11.7656 2.03133 11.6093 2.00008 11.4218C1.83602 10.4922 1.8282 9.5234 2.00008 8.57809C2.03133 8.39059 2.14852 8.23434 2.31258 8.14059L4.08602 7.15622Z" stroke="white" stroke-opacity="0.95" stroke-width="1.5" stroke-miterlimit="10" stroke-linecap="round" stroke-linejoin="round"/>
<path d="M10 13.75C12.0711 13.75 13.75 12.0711 13.75 10C13.75 7.92893 12.0711 6.25 10 6.25C7.92893 6.25 6.25 7.92893 6.25 10C6.25 12.0711 7.92893 13.75 10 13.75Z" stroke="white" stroke-opacity="0.95" stroke-width="1.5" stroke-miterlimit="10" stroke-linecap="round" stroke-linejoin="round"/>
</svg>
