<svg width="20" height="18" viewBox="0 0 20 18" fill="none" xmlns="http://www.w3.org/2000/svg">
<path d="M13.6 1.44024C14.9335 2.13328 15.85 3.57237 15.85 5.23529C15.85 6.89822 14.9335 8.33731 13.6 9.03034M15.4 13.9566C16.7603 14.6003 17.9853 15.6494 19 17M1 17C2.75184 14.6683 5.13026 13.2353 7.75 13.2353C10.3697 13.2353 12.7482 14.6683 14.5 17M11.8 5.23529C11.8 7.57438 9.98675 9.47059 7.75 9.47059C5.51325 9.47059 3.7 7.57438 3.7 5.23529C3.7 2.89621 5.51325 1 7.75 1C9.98675 1 11.8 2.89621 11.8 5.23529Z" stroke="white" stroke-width="1.5" stroke-linecap="round" stroke-linejoin="round"/>
</svg>
